<svg id="Layer_1" data-name="Layer 1" xmlns="http://www.w3.org/2000/svg" width="1184.24" height="151.14" viewBox="0 0 1184.24 151.14"><defs><style>.cls-1{fill:#eed35a;}</style></defs><path class="cls-1" d="M1183.15,275.66c-.1-.09,0-.16.1-.27C1183.31,275.45,1183.31,275.55,1183.15,275.66Z" transform="translate(0.93 -124.52)"/><path class="cls-1" d="M1183.05,273c0-.07,0-.08.18-.1s.08.15.08.23S1183.16,273.1,1183.05,273Z" transform="translate(0.93 -124.52)"/><path class="cls-1" d="M-.93,274.1c.08-.1.16,0,.26.1C-.73,274.26-.83,274.26-.93,274.1Z" transform="translate(0.93 -124.52)"/><path class="cls-1" d="M1183.31,270.65c0,.08-.11.07-.23.05s0-.16.17-.25S1183.31,270.57,1183.31,270.65Z" transform="translate(0.93 -124.52)"/><path class="cls-1" d="M1183.31,268.49c-.08,0-.15,0-.26-.12s0-.09.18-.1S1183.31,268.42,1183.31,268.49Z" transform="translate(0.93 -124.52)"/><path class="cls-1" d="M699.38,246.85c.46,0,.92,0,1.38,0h481.09a4.11,4.11,0,0,1,.8.08l.4.23c0,.53,0,1.06-.06,1.75a.76.76,0,0,1-.39.38l-.29,0q-242.77,0-485.55,0c-1.36,0-1.73-.4-1.72-1.75,0-14.68,0-29.36,0-44,0-4.57,0-9.13.12-13.72a1.37,1.37,0,0,0-.15-.71,31.07,31.07,0,0,0-3.36-.12c0,1.49.07,2.92,0,4.34,0,.4-.65,1.07-1,1.08-2.46.1-4.93.1-7.39,0a1.51,1.51,0,0,1-1.05-1,19.21,19.21,0,0,1,.07-3.55,1.28,1.28,0,0,0-.15-.71c-1.25-.12-2.44-.12-3.72-.12,0,1.82,0,3.49,0,5.2a1.32,1.32,0,0,1-.35.24c-1.87,0-3.6,0-5.32,0-4.59,0-4.59,0-4.27-4.64a1.48,1.48,0,0,0-.15-.71c-1.44-.12-2.8-.12-4.23-.12,0,.26-.06.45-.06.65q0,30.38,0,60.77a4.59,4.59,0,0,0,.32,1.17,2.24,2.24,0,0,0,.74-.1c10,0,19.87,0,29.78.13l2.26-.13.75,0h483.55a10.12,10.12,0,0,1,1.43.1,1,1,0,0,0,.26.2c0,.63,0,1.26-.06,2.07-.13.24-.2.31-.25.4q-591,0-1182.28-.06c-.25-.14-.32-.2-.41-.25a12.91,12.91,0,0,1,.15-2.33q261.56-.21,522.88-.14V189h-4.23c0,1.46.06,2.85,0,4.22,0,.42-.48,1.17-.75,1.18-3.11.08-6.22,0-9.46,0V189H505c0,1.39-.06,2.71,0,4s-.4,1.51-1.52,1.47c-2.15-.07-4.31-.08-6.47,0-1.19.05-1.69-.29-1.6-1.55s0-2.63,0-3.91H492v57.84c0,2.44,0,2.44-2.36,2.44H.05v-2.33q244.2-.21,488.61-.14V188.62c0-2.19.41-2.7,2.57-2.8s4.11,0,6.16,0c.9,0,1.15.41,1.13,1.23,0,1.58,0,3.17,0,4.85h3.39c0-1.56,0-3.14,0-4.71,0-1,.26-1.4,1.3-1.37,2.47.05,4.93,0,7.39,0,.86,0,1.21.31,1.19,1.18,0,1.48,0,3,0,4.57h3.94v-5.87c3.38.16,6.62.26,9.85.52.37,0,.9.91,1,1.44a42.35,42.35,0,0,1,0,4.24h37.28c0-2.73,0-5.49,0-8.24,0-2.16.59-2.74,2.78-2.76,2.45,0,4.9-.11,7.36-.11a1.42,1.42,0,0,1,1.57,1.59c0,1.49,0,3,0,4.57h4c0-1.35.05-2.77,0-4.18s.51-2,1.89-1.87c.76,0,1.52,0,2.36,0v-16c-.79,0-1.55,0-2.3,0-1.64,0-2.36-.94-1.76-2.46,1.14-2.87,2.41-5.68,3.6-8.52q3.21-7.63,6.39-15.28c.56-1.33,1.1-2.67,1.74-4A8.68,8.68,0,0,0,592.5,130c-.12-1.74,0-3.49,0-5.38,2.36-.14,4.73-.14,7.28-.08a4.1,4.1,0,0,1,.37.24c0,1.64,0,3.28.06,4.92,0,.92-.31,1.29-1.25,1.26-1.48,0-3,0-4.81,0,.28.86.46,1.59.74,2.27,2.22,5.41,4.44,10.83,6.71,16.22,1.7,4,3.52,8,5.19,12a6.9,6.9,0,0,1,.14,2.69,3.84,3.84,0,0,0-.26.33l-3.62.55c0,5.17,0,10.45.13,15.88a1.13,1.13,0,0,0,.71,0,13,13,0,0,1,2.74.2,3.32,3.32,0,0,0,.69.66c.12,1.72.23,3.43.48,5.3a1.16,1.16,0,0,0,.72,0,13.29,13.29,0,0,1,2,.06l.68-.13c0-1.64,0-3.29.19-5.08l2.31-1c2.63,0,5.26,0,8,.2a3.6,3.6,0,0,0,.68.66,5.06,5.06,0,0,1,.56,1.56c.08,2.84.08,5.68.24,8.67a1.13,1.13,0,0,0,.71,0h0q18.32-.12,36.65,0c0-1.69,0-3.13,0-4.34a1.63,1.63,0,0,1,.39-1.25,1.67,1.67,0,0,1,1.38-.25c1.49-.19,3.13-.34,4.9-.39,1.31,0,2.55,0,3.71,0,.23.13.29.19.36.23,0,1.82.09,3.64.27,5.6a1.13,1.13,0,0,0,.71,0,16.14,16.14,0,0,1,2.36.07l.68-.14c0-1.52.06-3,0-4.58,0-.91.3-1.29,1.24-1.27,2.5,0,5,0,7.49,0,.87,0,1.17.36,1.16,1.2a48.69,48.69,0,0,0,.2,5,1.13,1.13,0,0,0,.71,0,9.76,9.76,0,0,1,1.75.06l.68-.13c0-1.59.06-3.18,0-4.77,0-.94.21-1.43,1.28-1.39,2.2.07,4.41.05,6.72.28a5.6,5.6,0,0,0,1.51.66,10.46,10.46,0,0,1,.35,1.89q0,28.2,0,56.41a7.44,7.44,0,0,0,.21,1.83l.38,0m-41.34-30.54c-.9-1.37-1.74-2.79-2.71-4.11a16.13,16.13,0,0,0-12.48-6.67c-7.67-.41-13.06,3.46-16.74,10a3.91,3.91,0,0,0-.28,1.57,2.36,2.36,0,0,1,1.82.62c.55.66.3,1.62.16,2.84a16.38,16.38,0,0,0,.1,4.36c1.07,0,2.21,0,3.4,0,.88,0,1.73.1,2.54.18l.53,0v-.5c0-2,0-3.93,0-5.9a1.35,1.35,0,0,1,.31-1,1.38,1.38,0,0,1,1-.38l3-.13c2.88,0,5.76,0,8.72.15a2.7,2.7,0,0,1,.29.38c0,.92,0,1.84-.06,2.76-.1,3-.22,6-.3,9,0,2.07-.18,4.09,1.46,5.86.69.74.72,2.11,1,3.21s.42,2,.7,3.11c.05.07.11.12.27.34a5.09,5.09,0,0,1,1,.93l1.72.82a37.6,37.6,0,0,1,1,3.68c.22,1.31.24,2.66.38,4.14l1.26,0,4.85,0c0-3.9,0-7.84.06-11.82q.06-5.7.19-11.28l.06-1.15c0-.15,0-.38,0-.65a9.92,9.92,0,0,0-.68-3.61c-.19-.6-.5-1.62-.94-3.07a7.45,7.45,0,0,1-.8-1.78Zm-69,16.14a8.77,8.77,0,0,1,10.78.8c1.68,1.17,2,2.76,2,4.76-.16,4,0,8,0,12,0,.62,0,1.12,0,1.41l1.22,0q14.75,0,29.5,0c6.29,0,12.59,0,19,.22l.71-.05a33.92,33.92,0,0,0-.22-3.48c0-.08-.05-.26-.08-.45a11.77,11.77,0,0,0-.31-1.41,5.56,5.56,0,0,0-.21-.58,11.26,11.26,0,0,1-1.37-1.11,10.64,10.64,0,0,1-2.21-2.79,5,5,0,0,1-.52-1.88,4.62,4.62,0,0,1,0-1.17c-.16-.49-.32-1-.57-1.67a31.75,31.75,0,0,1-1.91-3.53c-.09-.62-.19-1.24-.28-1.86l.07-1.18a18.85,18.85,0,0,1,.24-3.14l.07-1.18c0-1.64,0-3.29.2-5a4.58,4.58,0,0,0-.29-.81h-7.61c0,1.74.08,3.42,0,5.09,0,.65-.45,1.69-.91,1.83a9.47,9.47,0,0,1-4.39.67c-1.55-.1-3.51-.27-5.79-.56a.84.84,0,0,1-.54,0c-.56-.2-.88-1.09-.73-2.19a7.48,7.48,0,0,0,.07-1.18,17.41,17.41,0,0,0,.07-4.39c-2.58-.08-4.51-.15-5.61-.26a1.23,1.23,0,0,0-1.54,1.48c0,1.48,0,3,0,4.46.06,1.33-.52,1.81-1.82,1.79-3.23,0-6.48.18-9.7,0l-1.43-.09-.07-1.17q-.06-3.24-.1-6.47l-6-.07c-.25,3.47-.42,6-.43,7.07a1.3,1.3,0,0,1-.32.92c-.34.3-.85.21-1.37.14a23.8,23.8,0,0,0-2.61-.06c-1.29,0-1.56.13-2.75.06-1-.06-1.37-.18-1.61-.43a2.1,2.1,0,0,1-.44-1.6c.06-1.42,0-3.33-.09-5.91h-6.43c0,2.83,0,5.23-.1,7.7a1.1,1.1,0,0,1-.44.23l-5.88,0-6.26-.07c0-.24-.05-.49-.07-.75s0-.31,0-.45c0-.62,0-1.25,0-1.89,0-1.63,0-3.21-.14-4.71l-7.3-.06c0,1.42-.06,2.85-.08,4.31s0,2.66,0,4l-.94-.09-3.41.09c-1.89.06-3.79-.25-5.68-.25a1.87,1.87,0,0,1-1.48-.46,1.76,1.76,0,0,1-.25-1.47l0-.81c-.05-1.45-.09-2.9-.12-4.34l-7.82,0c0,1,0,1.81,0,2.59.1,2.54.06,5.1.4,7.6a7.28,7.28,0,0,1-1.19,5.21,6.45,6.45,0,0,0-1.3,3.21c.06,2.62-1.3,4.2-3.15,5.69a3.54,3.54,0,0,0-1.44,2.1,27.21,27.21,0,0,0,.55,4.84l.86-.19q14-.09,28.27,0,10.14.06,20.13.2c.14-7.2.25-12.5.24-14.68a4.55,4.55,0,0,1,.43-2.07A5.19,5.19,0,0,1,588.7,232.51Zm10.24,18.62c0-2.34,0-4.7,0-7.1s.08-4.66.15-6.95a4.6,4.6,0,0,0-1.63-2.29,6.1,6.1,0,0,0-3.35-1.17,7.32,7.32,0,0,0-4.08.91,4.37,4.37,0,0,0-1.79,1.63,4.58,4.58,0,0,0-.49,2.71c.22,3.73,0,7.47.07,11.21,0,.69,0,1.25,0,1.56h.64c2.37,0,4.09,0,5.06,0,1.25,0,3,0,5.38,0ZM614.35,188a2,2,0,0,1-2.29,1.87q-2.85,0-5.7,0c-1.11,0-1.66-.36-1.58-1.6.09-1.51,0-3,0-4.5H599c0,1.44-.07,2.81,0,4.18.08,1.17-.24,1.67-1.52,1.63-2.72-.09-5.45-.07-8.16,0-1.06,0-1.5-.29-1.44-1.4.07-1.46,0-2.93,0-4.37H582c0,1.64,0,3.18,0,4.71.05.95-.4,1.32-1.21,1.34-2.16,0-4.31,0-6.47,0-1,0-1.68-.48-1.6-1.71.09-1.46,0-2.93,0-4.37h-6.21v32.9c1.43,0,2.71.3,3.76-.07,1.73-.6,1.62.66,1.79,1.51a13.36,13.36,0,0,1,0,2.61v4.2h3.32V204.14c-1.73-.16-3.41-.2-5-.51-1.15-.22-1.45-1.26-.75-2.22a15.16,15.16,0,0,1,1.86-1.9c2-1.94,4-3.95,6.13-5.77a6.52,6.52,0,0,1,3.39-1.7c4.74-.28,9.5-.34,14.25-.36,3.06,0,6.12.3,9.17.24a6.64,6.64,0,0,1,4.32,1.46,35.66,35.66,0,0,1,2.85,2.52c1.64,1.52,3.34,3,4.87,4.63a3,3,0,0,1,.78,2.25c-.13.52-1.19.88-1.9,1.17a3.9,3.9,0,0,1-1.37,0h-2.65v20.27H615v-1.56c0-1.75,0-3.49,0-5.24,0-.76.06-1.15,1.12-.95a23.48,23.48,0,0,0,4.12.06V183.74h-5.85V188m-80.75,56c.57-.38,1.16-.74,1.7-1.17.79-.62,1.72-1,1.81-2.36.11-1.75.34-3.79,1.33-5.11,1.65-2.21,1.37-4.39,1.17-6.77a80.58,80.58,0,0,1-.38-8.07,2.41,2.41,0,0,1,2.61-2.64c2.93-.07,5.85-.42,8.78-.55,2.13-.1,2.44.45,2.12,2.51-.25,1.69-.25,3.42-.36,5.08h7.27c-.15-1.61-.23-3.13-.45-4.62-.34-2.37.29-3.23,2.91-3.37-1.07-1.6-2-3.09-3.06-4.55a15.11,15.11,0,0,0-7-5.48,16.58,16.58,0,0,0-16.14,1.81c-3.91,2.64-6.4,6.51-8.11,10.88-.86,2.19-1.75,4.35-1.56,6.82.2,2.64.29,5.29.31,7.93.05,5.19,0,10.37,0,15.56v1.52h5.81c.37-2.5.72-4.88,1.24-7.42M622.69,210v3.49l.42.24c4.42-6.93,10.25-11.52,18.8-11.3s14.25,4.91,18.54,11.94V195.11H622.81c0,4.95,0,9.84-.12,14.92m-58.56-1.28V195.14H526.66v19.17c4.26-6.83,9.86-11.5,18.21-11.85s14.31,4.07,18.85,10.76l.41-.12v-4.35m15.41,11.72v-3.55h9.57c2.1,0,2.4.33,2.45,2.47,0,1.64.15,3.27.23,4.86h3.26a39.6,39.6,0,0,0,.17-4.58c-.25-3.07-.32-3.06,2.75-3.06,2,0,4,0,6,0,3,0,3.28.33,3.28,3.29v4.25c1.26.48,1.25-.23,1.24-1,0-4.16,0-8.32,0-12.47v-6.61H578.31c0,6.75,0,13.41,0,20.07,0,.31.55.62.84.94l.36-.31v-4.29m3.69-59.19-.43,1h21.11c-.21-.58-.36-1-.55-1.51-1.88-4.6-3.75-9.2-5.65-13.79-1.11-2.67-2.24-5.32-3.42-8a2.44,2.44,0,0,0-1.06-.94c-.08,0-.58.46-.72.78-3.1,7.38-6.17,14.77-9.28,22.4m3.31,19.56c.72,0,1.44.08,2.15,0,1.48-.12,2,.52,1.95,2-.07,1.26,0,2.53,0,3.81h5.54c0-1.46,0-2.84,0-4.22,0-1.1.49-1.58,1.58-1.55.89,0,1.79,0,2.62,0V165h-14c0,5.3,0,10.48.2,15.87m24.88,18.52c-1.42-1.32-2.8-2.71-4.31-3.94a4,4,0,0,0-2.25-.95c-7.64-.07-15.28-.05-22.92,0a2.47,2.47,0,0,0-1.5.49c-2.34,2-4.64,4.06-7,6.1l0,.48c1.89,0,3.79,0,5.68,0,3.31-.08,6.62-.26,9.94-.29,5.33-.05,10.66,0,16,0,.54,0,1.09.2,1.64.21,2.16,0,4.33,0,6.49,0l0-.5c-.57-.47-1.15-.95-1.89-1.58m-16.85-73-.34,2.68h4v-2.7C597.09,126.35,596,126.35,594.57,126.37Z" transform="translate(0.93 -124.52)"/><path class="cls-1" d="M494.2,202a3.47,3.47,0,0,1,5.08-1.12c.8.74.74,6.58-.22,6.9a9.12,9.12,0,0,1-3.76.19c-1.33-.15-1.1-1.35-1.1-2.31Z" transform="translate(0.93 -124.52)"/><path class="cls-1" d="M521.31,205.17c0,1.24.2,2.49-1.2,2.92a4.46,4.46,0,0,1-4-.45,1.24,1.24,0,0,1-.29-.9c0-1.53,0-3.07,0-4.6a1.71,1.71,0,0,1,1.88-1.86c3-.1,3.66.54,3.66,3.52Z" transform="translate(0.93 -124.52)"/><path class="cls-1" d="M510.22,205.45c0,2.38-.55,2.86-3,2.84-2,0-2.57-.58-2.57-2.64,0-1.13-.05-2.26,0-3.38.07-1.59.83-2,3.22-2,1.62,0,2.3.64,2.31,2.1C510.23,203.36,510.22,204.33,510.22,205.45Z" transform="translate(0.93 -124.52)"/><path class="cls-1" d="M691.76,200.32a11.66,11.66,0,0,1,1.11,2.9c.17,1,0,2.05,0,3.06a1.68,1.68,0,0,1-1.22,1.84c-2.52,1-4.34-.12-4.34-2.8v-2.76c0-1.62.63-2.24,2.28-2.27C690.3,200.27,691,200.29,691.76,200.32Z" transform="translate(0.93 -124.52)"/><path class="cls-1" d="M682.27,207.07a3.63,3.63,0,0,1-4,1.16,2.12,2.12,0,0,1-1.39-2.4c0-1.18.06-2.36,0-3.54a1.7,1.7,0,0,1,1.23-1.84c2.54-1,4.34.13,4.33,2.84C682.43,204.52,682.39,205.74,682.27,207.07Z" transform="translate(0.93 -124.52)"/><path class="cls-1" d="M666.18,207.54a33.94,33.94,0,0,1-.28-5.54c.13-1.42,1.93-2.11,4-1.69,1.26.25,1.53,1.23,1.47,2.42-.07,1.58,0,3.16,0,4.79C669.64,208.46,668,208.79,666.18,207.54Z" transform="translate(0.93 -124.52)"/><path class="cls-1" d="M550.26,237.29a9.46,9.46,0,0,1,3.31-.46c.32,0,.53,1.34.69,2.08a7.11,7.11,0,0,1,0,1.53c0,1.46-.63,2.05-2.14,2.05-1.72,0-2.18-.41-2.15-2.09C550,239.4,550.15,238.41,550.26,237.29Z" transform="translate(0.93 -124.52)"/><path class="cls-1" d="M636.27,242.3c-.65.12-1.34.38-1.73.14a4.49,4.49,0,0,1-1.65-1.73,4.76,4.76,0,0,1-.06-2c0-2,.15-2,2.07-2.13,1.55-.08,2.3.11,2.21,2.15C637.06,239.92,637.75,241.31,636.27,242.3Z" transform="translate(0.93 -124.52)"/><path class="cls-1" d="M564.73,236.82c2.78-.34,3.1,0,3.1,2.59v.92c0,2.13-1.38,2.91-3.3,1.86a1.6,1.6,0,0,1-.61-.41C563.45,241,564,237.61,564.73,236.82Z" transform="translate(0.93 -124.52)"/><path class="cls-1" d="M623.28,239.44c0,2.74-.48,3.26-2.67,3.05a1.91,1.91,0,0,1-.72-.18c-.57-.32-.94-3.57-.53-4.64s1.32-1.11,2.24-1C623.27,236.81,623.36,238,623.28,239.44Z" transform="translate(0.93 -124.52)"/><path class="cls-1" d="M582.87,208.2c-1,1.27-2,.72-2.8,0a1.89,1.89,0,0,1-.16-1.78,3.1,3.1,0,0,1,2.34-.67A1.47,1.47,0,0,1,582.87,208.2Z" transform="translate(0.93 -124.52)"/><path class="cls-1" d="M606.87,208.19c-.67.3-1.32.75-1.85.63-1-.22-1.82-.93-1.4-2.08a1.66,1.66,0,0,1,2.31-1.11C607,206.08,607.63,206.85,606.87,208.19Z" transform="translate(0.93 -124.52)"/><path class="cls-1" d="M587.31,206.59c.65-.47,1.61-1.24,1.78-1.1a10.1,10.1,0,0,1,1.53,2.16c-.57.31-1.12.88-1.69.9C587.82,208.58,587.2,207.87,587.31,206.59Z" transform="translate(0.93 -124.52)"/><path class="cls-1" d="M597.41,205.52c1.13-.57,1.51.13,1.94.84a1.21,1.21,0,0,1-.6,1.89,3,3,0,0,1-2.16-.13c-.25-.12-.12-1.21,0-1.83C596.62,206,597,205.79,597.41,205.52Z" transform="translate(0.93 -124.52)"/><path class="cls-1" d="M591.24,173.13v-2.45c0-1.78.65-2.44,2.32-2.44s2.29.67,2.3,2.46c0,1,0,2,0,3.07,0,1.68-.86,2.75-2.24,2.79s-2.37-1.05-2.38-2.82Z" transform="translate(0.93 -124.52)"/><path class="cls-1" d="M587,231.88" transform="translate(0.93 -124.52)"/><path class="cls-1" d="M633.14,226" transform="translate(0.93 -124.52)"/><path class="cls-1" d="M244.61,218.13c-.49,11-9.62,19.33-21.25,19.33-14.63,0-19.66-10.27-20.85-13.42L214,219.67c.94,2.5,3.33,5.47,9.34,5.47,5,0,8.74-3.18,8.93-7.55.07-1.58.28-6.39-10.93-10.23-16.47-5.65-19.56-15.32-19.24-22.43.48-11,9.62-19.33,21.24-19.33C238,165.6,243,175.87,244.23,179l-11.52,4.37c-1-2.5-3.33-5.47-9.34-5.47-5,0-8.74,3.18-8.93,7.55-.07,1.58-.29,6.39,10.93,10.23C241.84,201.36,244.92,211,244.61,218.13Z" transform="translate(0.93 -124.52)"/><path class="cls-1" d="M299.05,190.73v46.65H287V212.56H264.7v24.9H252.61V190.73a23.22,23.22,0,1,1,46.44,0ZM287,200.47v-9.74a11.13,11.13,0,1,0-22.26,0v9.74Z" transform="translate(0.93 -124.52)"/><path class="cls-1" d="M355.2,189.63v47.75H343.1V189.63a10.11,10.11,0,1,0-20.22,0v47.75h-12.1V179.65H305v-12.1h6a11.8,11.8,0,0,1,8.94,4.09,22.2,22.2,0,0,1,35.21,18Z" transform="translate(0.93 -124.52)"/><path class="cls-1" d="M411.17,189.92v25.13a22.43,22.43,0,0,1-22.41,22.41h-22.3V179.6h-5.25V167.5h27.55A22.45,22.45,0,0,1,411.17,189.92Zm-12.09,0a10.33,10.33,0,0,0-10.32-10.31h-10.2v45.77h10.2a10.33,10.33,0,0,0,10.32-10.32Z" transform="translate(0.93 -124.52)"/><path class="cls-1" d="M463.42,167.42v18.93a22.15,22.15,0,0,1-16.06,21.26v29.77H435.27V207.61a22.13,22.13,0,0,1-16.06-21.26V167.42H431.3v18.93a10,10,0,1,0,20,0V167.43Z" transform="translate(0.93 -124.52)"/><path class="cls-1" d="M769.6,167.4v69.87H757.51V208.38H735.16v29h-12.1V167.4h12.1v28.89h22.35V167.4Z" transform="translate(0.93 -124.52)"/><path class="cls-1" d="M824,190.56v46.65h-12.1V212.4H789.65v24.89H777.56V190.56a23.23,23.23,0,0,1,46.45,0Zm-12.1,9.74v-9.74a11.13,11.13,0,0,0-22.26,0v9.74Z" transform="translate(0.93 -124.52)"/><path class="cls-1" d="M866.39,213.89h12.09a23.26,23.26,0,0,1-46.52,0V190.46a23.26,23.26,0,1,1,46.52,0H866.39a11.17,11.17,0,1,0-22.34,0v23.43a11.17,11.17,0,1,0,22.34,0Z" transform="translate(0.93 -124.52)"/><path class="cls-1" d="M923.87,202.36a22,22,0,0,1,6.93,16.06v18.89H918.71V218.42a10.06,10.06,0,0,0-9.31-10H898.55v28.93H886.46V167.4h12.09v28.89H909.4a10.07,10.07,0,0,0,9.31-10V167.4H930.8v18.89A22,22,0,0,1,923.87,202.36Z" transform="translate(0.93 -124.52)"/><path class="cls-1" d="M981.26,218c-.49,11-9.62,19.33-21.24,19.33-14.64,0-19.67-10.27-20.86-13.42l11.52-4.36C951.62,222,954,225,960,225c5,0,8.74-3.17,8.93-7.55.07-1.58.28-6.38-10.93-10.23-16.47-5.65-19.56-15.32-19.24-22.43.49-11,9.62-19.33,21.24-19.33,14.63,0,19.67,10.28,20.86,13.43l-11.52,4.36c-.94-2.49-3.33-5.47-9.34-5.47-5,0-8.74,3.18-8.93,7.56-.07,1.58-.29,6.38,10.93,10.23C978.49,201.19,981.57,210.85,981.26,218Z" transform="translate(0.93 -124.52)"/></svg>